<svg xmlns="http://www.w3.org/2000/svg" viewBox="0 0 38.58 39.93">
  <defs>
    <style>
      .cls-1 {
        fill: #706d5e;
      }
    </style>
  </defs>
  <title>Logo</title>
  <g id="Capa_2" data-name="Capa 2">
    <g id="Capa_1-2" data-name="Capa 1">
      <path class="cls-1" d="M33.59,4.29q5,4.29,5,12.25H26.75A7.65,7.65,0,0,0,25,11.22a6.41,6.41,0,0,0-5-2q-3.75,0-5.52,2.36a10.72,10.72,0,0,0-1.77,6.56v3.59a10.73,10.73,0,0,0,1.77,6.53,6.3,6.3,0,0,0,5.41,2.39,7.35,7.35,0,0,0,5.44-1.86,7.05,7.05,0,0,0,1.85-5.21H38.58q0,7.91-4.85,12.11T20,39.93q-9.87,0-14.95-5T0,20C0,13.38,1.69,8.42,5.07,5.05s8.37-5,15-5Q28.6,0,33.59,4.29Z"/>
    </g>
  </g>
</svg>
